<?xml version="1.0" standalone="no"?>
<!DOCTYPE svg PUBLIC "-//W3C//DTD SVG 20010904//EN"
 "http://www.w3.org/TR/2001/REC-SVG-20010904/DTD/svg10.dtd">
<svg version="1.0" xmlns="http://www.w3.org/2000/svg"
 width="382.000000pt" height="475.000000pt" viewBox="0 0 382.000000 475.000000"
 preserveAspectRatio="xMidYMid meet">

<g transform="translate(0.000000,475.000000) scale(0.100000,-0.100000)"
fill="#000000" stroke="none">
<path d="M900 4370 l0 -220 -28 0 c-82 0 -193 -64 -227 -131 -36 -69 -5 -134
63 -134 55 0 118 45 160 115 l32 54 0 -82 c0 -48 4 -82 10 -82 6 0 10 123 10
350 0 227 -4 350 -10 350 -6 0 -10 -80 -10 -220z m-5 -262 c-27 -95 -104 -190
-163 -201 -45 -9 -77 13 -80 56 -3 32 3 43 40 83 45 47 123 83 181 84 25 0 28
-3 22 -22z"/>
<path d="M1750 4240 c0 -227 4 -350 10 -350 6 0 10 123 10 350 0 227 -4 350
-10 350 -6 0 -10 -123 -10 -350z"/>
<path d="M2780 4246 c0 -219 4 -347 10 -351 7 -4 10 113 10 344 0 227 -4 351
-10 351 -6 0 -10 -121 -10 -344z"/>
<path d="M1903 4339 c-14 -14 -6 -39 12 -39 18 0 26 27 11 39 -9 7 -16 7 -23
0z"/>
<path d="M1161 4133 c-25 -9 -67 -38 -98 -67 -49 -48 -53 -56 -53 -98 0 -58
25 -83 81 -82 53 2 102 37 149 108 l40 58 0 -81 c0 -49 4 -81 10 -81 7 0 10
45 8 128 l-3 127 -45 2 c-25 1 -65 -5 -89 -14z m109 -30 c-27 -91 -76 -158
-136 -184 -38 -17 -48 -18 -72 -7 -56 27 -32 122 45 169 47 30 101 48 140 49
30 0 31 -1 23 -27z"/>
<path d="M1384 4126 c-32 -28 -17 -35 21 -10 46 30 54 16 57 -106 3 -129 22
-154 26 -35 l3 80 51 38 c53 39 76 45 96 25 19 -19 14 -65 -9 -81 -12 -9 -16
-17 -10 -21 18 -12 51 32 51 67 0 71 -62 87 -133 33 l-44 -34 -14 32 c-19 41
-56 46 -95 12z"/>
<path d="M1905 4139 c-10 -25 -1 -239 10 -242 14 -3 19 233 6 246 -7 7 -12 5
-16 -4z"/>
<path d="M2058 4144 c-12 -11 -10 -242 2 -249 5 -3 10 29 12 81 3 86 3 87 39
116 49 39 100 47 128 19 19 -19 21 -33 21 -121 0 -65 4 -100 11 -100 7 0 10
36 7 111 -3 102 -5 112 -27 130 -32 26 -77 24 -130 -6 -23 -14 -45 -25 -46
-25 -2 0 -5 12 -7 26 -2 14 -6 22 -10 18z"/>
<path d="M2529 4136 c-85 -31 -138 -78 -159 -142 -23 -69 27 -122 101 -107 37
7 114 74 139 122 l19 36 1 -107 c0 -119 -10 -152 -51 -174 -47 -24 -94 -18
-134 17 -38 34 -54 34 -36 0 26 -47 122 -66 181 -36 55 28 64 62 65 240 l0
160 -45 2 c-25 2 -61 -3 -81 -11z m101 -16 c0 -5 -9 -34 -20 -64 -45 -120
-170 -191 -215 -122 -45 70 85 192 208 195 15 1 27 -3 27 -9z"/>
<path d="M2930 4053 c0 -109 11 -141 53 -161 26 -13 56 -9 110 13 15 6 17 0
17 -62 0 -73 -11 -98 -45 -106 -19 -4 -19 -4 -2 -12 13 -5 25 -1 43 15 22 21
24 32 24 103 0 61 4 85 17 99 15 17 15 18 0 18 -15 0 -17 13 -17 90 0 53 -4
90 -10 90 -6 0 -10 -40 -10 -100 l0 -99 -31 -16 c-46 -24 -89 -22 -111 5 -15
18 -18 40 -18 116 0 51 -4 96 -10 99 -6 4 -10 -29 -10 -92z"/>
<path d="M3251 3882 c-33 -51 -37 -62 -22 -62 7 0 71 95 71 106 0 17 -23 -4
-49 -44z"/>
<path d="M1610 2786 c0 -208 -2 -245 -15 -250 -8 -3 -15 -10 -15 -17 0 -6 7
-9 15 -5 13 4 15 -9 15 -84 0 -53 4 -90 10 -90 6 0 10 40 10 99 l0 99 40 16
c106 42 140 11 140 -128 0 -47 5 -88 10 -91 6 -4 10 28 10 90 0 100 -13 146
-45 159 -28 10 -84 7 -120 -8 l-35 -15 0 235 c0 149 -4 234 -10 234 -6 0 -10
-88 -10 -244z"/>
<path d="M1153 2774 c-8 -21 13 -42 28 -27 13 13 5 43 -11 43 -6 0 -13 -7 -17
-16z"/>
<path d="M1350 2728 c0 -35 -3 -80 -6 -100 -6 -35 -9 -37 -45 -40 -51 -4 -51
-22 1 -26 l40 -3 0 -85 c0 -119 15 -144 87 -144 30 0 50 7 70 24 15 13 25 28
20 32 -4 4 -17 -2 -30 -14 -15 -14 -36 -22 -60 -22 -53 0 -67 26 -67 127 l0
82 63 3 c76 4 78 22 2 26 l-55 3 0 99 c0 60 -4 100 -10 100 -6 0 -10 -28 -10
-62z"/>
<path d="M687 2583 c-5 -10 124 -253 135 -253 4 0 17 18 28 40 11 22 24 40 28
40 5 0 18 -18 31 -40 12 -22 25 -40 29 -40 9 0 132 235 132 252 -1 22 -28 -20
-82 -127 l-50 -99 -23 44 -23 45 34 67 c37 73 38 78 25 78 -4 0 -23 -28 -41
-62 l-33 -62 -31 62 c-17 34 -34 62 -38 62 -14 0 -8 -19 26 -82 l35 -63 -23
-44 -23 -44 -62 116 c-34 65 -64 117 -66 117 -2 0 -6 -3 -8 -7z"/>
<path d="M1160 2466 c0 -73 4 -127 10 -131 6 -4 10 40 10 124 0 81 -4 131 -10
131 -6 0 -10 -48 -10 -124z"/>
<path d="M2178 2584 c-12 -11 -9 -167 3 -203 6 -17 19 -36 29 -41 27 -14 81
-12 113 4 l27 15 0 -70 c0 -74 -11 -109 -35 -109 -8 0 -15 -5 -15 -11 0 -14
42 -1 58 19 7 10 12 47 12 98 0 60 4 85 15 94 8 7 15 16 15 21 0 5 -7 6 -15 3
-13 -5 -15 9 -15 91 0 61 -4 94 -10 90 -6 -3 -10 -50 -10 -105 l0 -99 -30 -16
c-48 -25 -97 -17 -121 18 -1 1 -4 49 -8 105 -3 57 -9 100 -13 96z"/>
<path d="M2533 2571 c-41 -26 -63 -69 -63 -122 0 -35 6 -48 39 -80 35 -35 44
-39 91 -39 47 0 56 4 91 39 35 35 39 44 39 90 0 44 -5 56 -33 87 -28 31 -41
37 -83 41 -37 3 -57 -1 -81 -16z m143 -35 c29 -29 34 -41 34 -79 0 -65 -42
-107 -107 -107 -38 0 -50 5 -79 34 -28 28 -34 42 -34 76 0 34 6 48 34 76 28
28 42 34 76 34 34 0 48 -6 76 -34z"/>
<path d="M2820 2500 c0 -135 24 -170 115 -170 85 0 121 63 113 198 -5 86 -23
60 -28 -42 -4 -74 -9 -99 -24 -115 -25 -28 -94 -29 -127 -2 -22 17 -24 28 -27
120 -2 56 -8 101 -13 101 -5 0 -9 -41 -9 -90z"/>
<path d="M1850 1042 c-201 -67 -327 -277 -292 -487 37 -223 220 -366 451 -352
184 11 319 105 382 266 32 80 32 242 1 322 -47 120 -123 198 -235 241 -75 30
-233 35 -307 10z m246 -107 c79 -78 105 -143 112 -277 3 -79 0 -110 -17 -166
-27 -89 -91 -177 -165 -226 -56 -37 -56 -37 -113 -26 -127 23 -227 99 -285
218 -31 62 -33 74 -33 167 0 92 3 106 32 167 17 37 50 87 73 112 79 86 238
142 305 107 16 -9 57 -43 91 -76z m135 -52 c75 -76 140 -149 144 -163 6 -22 1
-19 -40 20 -97 93 -267 280 -254 280 7 0 74 -62 150 -137z m6 64 c55 -42 122
-127 100 -127 -1 0 -38 36 -82 80 -83 83 -90 103 -18 47z m141 -332 c-4 -22
-135 111 -143 147 -6 23 7 14 70 -51 45 -47 75 -86 73 -96z m-8 -77 c0 -27
-10 -22 -67 34 -36 36 -53 60 -53 77 0 23 5 20 60 -34 33 -33 60 -67 60 -77z
m-68 -15 c43 -43 60 -73 41 -73 -13 0 -103 94 -103 107 0 22 12 15 62 -34z
m13 -123 c-10 -17 -95 68 -88 87 4 11 17 3 51 -30 27 -27 42 -49 37 -57z m-66
-4 c45 -47 31 -70 -15 -25 -32 31 -44 59 -26 59 4 0 23 -15 41 -34z m-35 -55
c19 -20 24 -31 16 -36 -13 -8 -60 32 -60 52 0 20 14 16 44 -16z m-52 -38 c23
-21 23 -33 -1 -33 -22 0 -45 25 -36 40 9 14 15 13 37 -7z m-52 -42 c0 -5 -7
-11 -15 -15 -15 -5 -20 5 -8 17 9 10 23 9 23 -2z"/>
</g>
</svg>
